Patient4_TMGait_0pt3_03_left_32_EMG.mot
version=1
nRows=23
nColumns=33
inDegrees=no
endheader
time	1LAddLong	2LGlutMax	3LGlutMed	4LIliopsoas	5LSemiMemb	6LBicFemLong	7LRecFem	8LVastMed	9LVastLat	10LGasMed	11LTibAnt	12lTibPost	13LPeroneusLong	14LSol	15LExtDigLong	16LFlexDigLong	17RAddLong	18RGlutMax	19RGlutMed	20RIliopsoas	21RSemiMemb	22RBicFemLong	23RRecFem	24RVastMed	25RVastLat	26RGasMed	27RTibAnt	28RTibPost	29RPeroneusLong	30RSol	31RExtDigLong	32RFlexDigLong
56.87	-0.011902	0.09491	0.033875	-0.002136	-0.012817	0.01297	0.080109	-0.010071	-0.007324	-0.002594	-0.089569	0.015106	0.040588	-0.078583	0.042572	0.005035	0.010681	0.081329	-0.22659	0.26535	0.27374	0.36468	0.08194	-0.31876	0.075073	0.049133	-0.018158	0.13473	-0.98892	0.24231	-0.000916	-0.002747
56.871	-0.003052	0.039978	0.001984	0.003967	-0.010376	0.005646	0.088806	-0.008392	0.007782	0.013428	-0.052185	0.025177	-0.012665	-0.085144	-0.059204	-0.011902	0.055542	0.007477	0.42801	0.083313	-0.14618	0.30853	0.056305	-0.25391	0.11383	0.022888	-0.039215	0.094757	-0.22446	0.64499	-0.001221	-0.001831
56.872	-0.007172	-0.00824	-0.062408	0.014191	-0.007935	-0.026245	0.10559	-0.006866	-0.005493	0.000763	-0.044861	0.020447	-0.044403	-0.03006	0.1561	0.003052	0.070648	0.044861	1.2582	0.029907	-0.22263	0.25055	0.045166	-0.53879	0.11444	-0.011597	-0.026703	0.057983	0.51346	0.57556	-0.003052	-0.005341
56.873	-0.000305	-0.007477	-0.036316	0.017395	-0.003967	-0.034485	0.096588	-0.010223	-0.007477	0.007477	0.039825	0.022278	-0.031586	-0.014954	-0.23209	0.002441	0.072479	0.14053	0.53375	0.090332	-0.12695	0.10757	0.015717	0.050812	0.084534	-0.016937	0.00412	0.012817	0.77698	0.22675	-0.000458	-0.007324
56.874	0.014038	0.020752	-0.026245	0.006104	-0.007935	-0.022125	0.048981	-0.007324	-0.006256	-0.010223	0.09903	0.025482	-0.011749	-0.022736	-0.041199	0.001068	0.022125	0.21561	-0.067902	0.15625	-0.036011	0.060425	-0.16693	0.72845	-0.009003	-0.009003	-0.0737	0.000916	0.32989	0.002289	-0.000916	-0.003357
56.875	0.009918	0.041351	-0.017853	-0.010681	-0.003967	-0.020447	0.071259	-0.009766	0.002899	-0.022888	0.19394	0.021057	0.008392	0.005951	-0.10101	0.014801	-0.067596	0.28397	-0.031281	0.12466	-0.092773	-0.098114	-0.18845	0.99564	-0.1004	0.011902	-0.22293	0.006104	1.7618	-0.18494	-0.00412	0.000305
56.876	0.014191	0.024414	-0.003815	-0.02594	0.005341	-0.044403	0.028687	-0.011139	0.005798	0.007324	0.17654	0.028687	-0.033722	0.032043	-0.036926	0.011444	-0.0914	0.23941	0.29755	0.087433	0.10864	-0.41367	-0.1181	1.0452	-0.43778	0.008087	-0.15488	0.005341	1.4586	-0.10529	-0.00351	-0.003052
56.877	0.018616	0.049896	-0.005493	0.00061	-0.00473	-0.059509	0.040283	-0.00885	0.003052	0.01358	0.14557	0.024872	-0.06546	0.011292	0.27832	0.013733	-0.068512	0.1033	0.49408	-0.014191	0.14343	-0.32684	-0.055084	0.42969	-0.45136	0.011444	-0.011139	-0.002289	-1.0516	-0.015106	-0.003052	-0.012817
56.878	0.010223	0.041504	-0.018463	0.021667	0.001068	-0.050659	0.069885	-0.011749	0.006866	0.005951	0.010834	0.032349	-0.000153	-0.029755	0.1413	0.016174	-0.04303	0.13626	0.33127	-0.068665	0.21652	-0.21042	-0.28992	0.009155	-0.14969	0.002289	-0.076294	-0.008392	-1.1806	0.13001	-0.003662	-0.015869
56.879	0.014343	0.073547	-0.004883	0.013275	0.012512	-0.059814	0.023193	-0.0177	0.003967	-0.030975	-0.20538	0.02243	0.065002	0.035248	0.10864	0.011444	-0.032349	0.1413	-0.32318	-0.039978	0.12146	-0.11688	-0.14008	0.025787	0.12634	-0.00412	-0.16739	-0.019379	-0.30807	0.024567	-0.00824	-0.020447
56.88	0.008392	0.072174	0.011749	-0.025177	0.010986	-0.082855	-0.06012	-0.012207	0.003204	-0.030365	-0.17868	0.030365	0.054169	0.064697	0.17853	0.005493	-0.051117	0.23651	-0.34866	-0.088806	0.031586	-0.10407	-0.071259	-0.18036	0.18005	-0.007782	-0.075378	-0.025177	0.18967	0.041809	-0.003357	-0.010376
56.881	0.010681	0.071716	0.032654	-0.012207	-0.000458	-0.095825	-0.024567	-0.014801	-0.002136	-0.051575	-0.035095	0.021057	0.049286	-0.015106	-0.36407	0.00885	-0.048523	0.22812	0.078888	-0.079651	-0.015564	-0.13214	-0.14053	-0.65567	0.14282	-0.004883	0.049133	-0.017242	-0.46005	-0.03418	-0.011902	-0.007324
56.882	0.015411	0.084839	0.007324	0.001373	0.009766	-0.083466	-0.00351	-0.014954	0.016479	-0.027313	0.023041	0.020294	-0.001678	-0.005341	-0.22247	0.010986	-0.048218	0.14694	0.20752	-0.076141	0.00473	-0.084839	-0.2092	-0.64362	0.12375	0.009918	0.025482	-0.014496	-0.79971	-0.011902	-0.002747	0.007629
56.883	0.010529	0.081482	0.011292	0.005493	0.010986	-0.1088	0.019836	-0.011292	0.010223	0.003357	-0.026398	0.030823	-0.060425	-0.018463	-0.35843	0.014496	-0.041656	0.20111	-0.25238	-0.034943	0.13504	-0.009766	-0.29373	-0.30014	0.096893	0.015869	-0.023956	-0.080109	-1.2764	-0.006256	-0.00351	0.006561
56.884	0.009308	0.11063	0.038757	-0.010071	0.010681	-0.10086	0.11688	-0.014648	-0.001984	0.014343	-0.045776	0.033875	-0.018158	-0.009918	-0.29541	0.018921	0.001068	0.058899	-0.66528	-0.011597	0.048218	0.021667	-0.12909	-0.095215	0.039215	0.018616	-0.039368	0.019836	-0.32272	-0.059662	-0.001068	0.011139
56.885	0.005951	0.15945	0.042267	0.00824	0.000916	-0.079956	0.16693	-0.014496	-0.018463	0.005493	-0.083771	0.031738	-0.016785	0.032959	-0.07431	0.006409	0.030212	0.10361	-0.15274	-0.048676	-0.054626	0.008545	-0.084534	0.052338	0.02243	0.003815	0.035553	0.10574	0.35217	0.038605	-0.001373	0.015259
56.886	0.001373	0.1297	-0.021515	0.041962	0.000305	-0.050812	0.19501	-0.01236	-0.016022	0.00061	-0.11551	0.032501	-0.023499	0.16663	0.24963	0.001068	0.04837	0.010986	-0.24735	-0.080566	-0.00946	-0.080261	-0.042267	0.12878	0.010529	-0.011902	0.059357	-0.28793	1.1913	-0.045776	-0.000305	0.01709
56.887	0.015869	0.14755	-0.063477	0.019989	0.007172	-0.038757	0.22232	-0.006561	-0.023041	0.025024	-0.084381	0.0354	-0.030518	0.048828	0.57922	0.001526	0.043945	-0.017853	-0.75516	-0.025177	-0.026855	-0.071716	0.045471	-0.11185	-0.006104	-0.018616	-0.019226	-0.050812	1.4073	-0.23727	-0.002441	0.015411
56.888	0.020599	0.14908	-0.016479	-0.032654	-0.002899	-0.018768	0.18509	-0.009613	-0.016174	0.005188	-0.050659	0.032959	0.009613	0.013428	0.090637	0.013123	0.030823	0.032806	-1.2068	0.095367	-0.011444	-0.034485	0.016022	-0.38513	-0.013428	-0.00824	-0.012207	0.027618	0.30853	-0.54199	-0.00061	0.011597
56.889	0.006866	0.16602	0.032501	-0.048218	-0.003052	-0.017548	0.14374	-0.005341	-0.01709	0.018005	-0.025787	0.046539	-0.00473	0.032654	1.022	0.001221	0.025635	0.037079	-1.5396	0.15808	-0.003662	-0.002899	0.088654	-0.49057	-0.057373	-0.055389	-0.076752	0.053406	-0.12695	-0.28107	0.002441	0.002136
56.89	0.007477	0.15778	0.035706	-0.013123	-0.005341	0.010376	-0.024414	0.003662	-0.015259	0.01297	-0.014954	0.032654	-0.026245	0.030823	-0.65216	0.008087	0.035858	0.049286	-1.405	0.20508	0.00351	0.002899	0.12253	-0.57495	-0.038452	0.037079	-0.10117	-0.023651	-0.70725	0.37399	-0.002594	-0.002747
56.891	0.009003	0.17822	0.013733	0.019684	-0.003204	0.010529	-0.1651	0.004272	-0.011597	0.035706	0.19424	0.051727	-0.14725	-0.005188	-0.32715	-0.005951	0.009155	0.15045	0.36148	-0.05661	-0.032196	0.070038	0.065765	-0.47928	0.39063	0.048218	-0.01236	-0.041504	-1.0091	0.56961	0.00351	-0.011292
56.892	0.010071	0.2066	0.037231	0.032959	0.001526	-0.017395	-0.17166	0.003967	0.001831	0.027466	0.47974	0.03891	-0.15106	-0.066223	0.12817	0	-0.062714	0.12054	0.29953	-0.10284	-0.067749	0.052338	0.096893	-0.19562	0.70221	-0.001068	0.033417	0.044708	-0.57907	0.15167	-0.005188	-0.005951
